<svg xmlns="http://www.w3.org/2000/svg" viewBox="0 0 900 400" width="900" height="400">
  <defs>
    <!-- Room wall gradient -->
    <linearGradient id="wallBg" x1="0%" y1="0%" x2="0%" y2="100%">
      <stop offset="0%" style="stop-color:#1a1e2e"/>
      <stop offset="100%" style="stop-color:#0f1219"/>
    </linearGradient>
    <!-- Warm lamp glow -->
    <radialGradient id="lampGlow" cx="50%" cy="0%" r="80%">
      <stop offset="0%" style="stop-color:#ffb347;stop-opacity:0.15"/>
      <stop offset="60%" style="stop-color:#ff8c00;stop-opacity:0.04"/>
      <stop offset="100%" style="stop-color:#ff8c00;stop-opacity:0"/>
    </radialGradient>
    <!-- Monitor screen glow -->
    <radialGradient id="screenGlow" cx="50%" cy="50%" r="70%">
      <stop offset="0%" style="stop-color:#58a6ff;stop-opacity:0.12"/>
      <stop offset="100%" style="stop-color:#58a6ff;stop-opacity:0"/>
    </radialGradient>
    <!-- Window night sky -->
    <linearGradient id="nightSky" x1="0%" y1="0%" x2="0%" y2="100%">
      <stop offset="0%" style="stop-color:#0b0e1a"/>
      <stop offset="100%" style="stop-color:#1a1e35"/>
    </linearGradient>
    <!-- Name gradient -->
    <linearGradient id="nameGrad" x1="0%" y1="0%" x2="100%" y2="0%">
      <stop offset="0%" style="stop-color:#58a6ff"/>
      <stop offset="50%" style="stop-color:#bc8cff"/>
      <stop offset="100%" style="stop-color:#39d353"/>
    </linearGradient>
    <!-- Desk wood gradient -->
    <linearGradient id="deskWood" x1="0%" y1="0%" x2="0%" y2="100%">
      <stop offset="0%" style="stop-color:#3d2b1f"/>
      <stop offset="100%" style="stop-color:#2a1d14"/>
    </linearGradient>
    <!-- Coffee gradient -->
    <linearGradient id="coffeeGrad" x1="0%" y1="0%" x2="0%" y2="100%">
      <stop offset="0%" style="stop-color:#5c3a1e"/>
      <stop offset="100%" style="stop-color:#3d2610"/>
    </linearGradient>
    <!-- Skin tone -->
    <linearGradient id="skinTone" x1="0%" y1="0%" x2="0%" y2="100%">
      <stop offset="0%" style="stop-color:#d4a574"/>
      <stop offset="100%" style="stop-color:#c49660"/>
    </linearGradient>
    <!-- Sweater gradient -->
    <linearGradient id="sweaterGrad" x1="0%" y1="0%" x2="0%" y2="100%">
      <stop offset="0%" style="stop-color:#2a2d3a"/>
      <stop offset="100%" style="stop-color:#1e2028"/>
    </linearGradient>
    <filter id="glow">
      <feGaussianBlur stdDeviation="3" result="coloredBlur"/>
      <feMerge>
        <feMergeNode in="coloredBlur"/>
        <feMergeNode in="SourceGraphic"/>
      </feMerge>
    </filter>
    <filter id="softGlow">
      <feGaussianBlur stdDeviation="1.5" result="coloredBlur"/>
      <feMerge>
        <feMergeNode in="coloredBlur"/>
        <feMergeNode in="SourceGraphic"/>
      </feMerge>
    </filter>
    <filter id="shadow">
      <feDropShadow dx="0" dy="2" stdDeviation="4" flood-color="#000" flood-opacity="0.3"/>
    </filter>
    <!-- Plant leaf gradient -->
    <linearGradient id="leafGrad" x1="0%" y1="0%" x2="100%" y2="100%">
      <stop offset="0%" style="stop-color:#39d353"/>
      <stop offset="100%" style="stop-color:#238636"/>
    </linearGradient>
    <linearGradient id="leafGrad2" x1="0%" y1="0%" x2="100%" y2="100%">
      <stop offset="0%" style="stop-color:#2ea043"/>
      <stop offset="100%" style="stop-color:#196c2e"/>
    </linearGradient>
    <!-- Book gradients -->
    <linearGradient id="book1" x1="0" y1="0" x2="0" y2="1">
      <stop offset="0%" style="stop-color:#58a6ff"/>
      <stop offset="100%" style="stop-color:#388bfd"/>
    </linearGradient>
    <linearGradient id="book2" x1="0" y1="0" x2="0" y2="1">
      <stop offset="0%" style="stop-color:#bc8cff"/>
      <stop offset="100%" style="stop-color:#8b5cf6"/>
    </linearGradient>
    <linearGradient id="book3" x1="0" y1="0" x2="0" y2="1">
      <stop offset="0%" style="stop-color:#f0883e"/>
      <stop offset="100%" style="stop-color:#d47320"/>
    </linearGradient>
    <!-- Subtle line gradient for text area -->
    <linearGradient id="lineGrad" x1="0%" y1="0%" x2="100%" y2="0%">
      <stop offset="0%" style="stop-color:#58a6ff;stop-opacity:0"/>
      <stop offset="50%" style="stop-color:#bc8cff;stop-opacity:0.6"/>
      <stop offset="100%" style="stop-color:#39d353;stop-opacity:0"/>
    </linearGradient>
  </defs>

  <!-- ======================== ROOM BACKGROUND ======================== -->
  <rect width="900" height="400" fill="url(#wallBg)" rx="12"/>

  <!-- Warm ambient light from lamp -->
  <ellipse cx="180" cy="120" rx="250" ry="200" fill="url(#lampGlow)"/>

  <!-- Screen ambient light on scene -->
  <ellipse cx="430" cy="200" rx="200" ry="180" fill="url(#screenGlow)"/>

  <!-- ======================== WINDOW (right side) ======================== -->
  <rect x="680" y="30" width="170" height="140" rx="4" fill="url(#nightSky)" stroke="#2d333b" stroke-width="3"/>
  <!-- Window cross frame -->
  <line x1="765" y1="30" x2="765" y2="170" stroke="#2d333b" stroke-width="2.5"/>
  <line x1="680" y1="100" x2="850" y2="100" stroke="#2d333b" stroke-width="2.5"/>
  <!-- Stars -->
  <circle cx="710" cy="55" r="1.2" fill="#e8e8e8" opacity="0.8">
    <animate attributeName="opacity" values="0.8;0.3;0.8" dur="3s" repeatCount="indefinite"/>
  </circle>
  <circle cx="740" cy="75" r="0.8" fill="#e8e8e8" opacity="0.5">
    <animate attributeName="opacity" values="0.5;0.2;0.5" dur="4s" repeatCount="indefinite"/>
  </circle>
  <circle cx="795" cy="50" r="1" fill="#e8e8e8" opacity="0.7">
    <animate attributeName="opacity" values="0.7;0.2;0.7" dur="2.5s" repeatCount="indefinite"/>
  </circle>
  <circle cx="830" cy="70" r="0.7" fill="#e8e8e8" opacity="0.6">
    <animate attributeName="opacity" values="0.6;0.1;0.6" dur="3.5s" repeatCount="indefinite"/>
  </circle>
  <circle cx="720" cy="120" r="1" fill="#e8e8e8" opacity="0.4">
    <animate attributeName="opacity" values="0.4;0.1;0.4" dur="5s" repeatCount="indefinite"/>
  </circle>
  <circle cx="810" cy="130" r="0.9" fill="#e8e8e8" opacity="0.5">
    <animate attributeName="opacity" values="0.5;0.15;0.5" dur="4.2s" repeatCount="indefinite"/>
  </circle>
  <circle cx="780" cy="145" r="0.6" fill="#e8e8e8" opacity="0.3">
    <animate attributeName="opacity" values="0.3;0.1;0.3" dur="3.8s" repeatCount="indefinite"/>
  </circle>
  <!-- Moon -->
  <circle cx="820" cy="55" r="12" fill="#e8dcc8" opacity="0.9"/>
  <circle cx="825" cy="52" r="10" fill="url(#nightSky)" opacity="0.8"/>

  <!-- ======================== WALL ART / SHELF ======================== -->
  <!-- Small shelf on wall -->
  <rect x="60" y="68" width="120" height="6" rx="2" fill="#3d2b1f" stroke="#2a1d14" stroke-width="0.5"/>
  <!-- Books on shelf -->
  <rect x="70" y="32" width="14" height="36" rx="1" fill="url(#book1)"/>
  <rect x="86" y="38" width="12" height="30" rx="1" fill="url(#book2)"/>
  <rect x="100" y="35" width="15" height="33" rx="1" fill="url(#book3)"/>
  <rect x="117" y="40" width="11" height="28" rx="1" fill="#39d353"/>
  <rect x="130" y="36" width="13" height="32" rx="1" fill="#f78166"/>
  <!-- Small plant on shelf -->
  <rect x="150" y="52" width="16" height="16" rx="3" fill="#4a3728"/>
  <ellipse cx="158" cy="48" rx="10" ry="8" fill="url(#leafGrad)"/>
  <ellipse cx="152" cy="44" rx="6" ry="7" fill="url(#leafGrad2)"/>
  <ellipse cx="164" cy="44" rx="5" ry="6" fill="#2ea043"/>

  <!-- ======================== DESK ======================== -->
  <!-- Desk surface -->
  <rect x="50" y="255" width="560" height="16" rx="3" fill="url(#deskWood)" filter="url(#shadow)"/>
  <!-- Desk front panel -->
  <rect x="55" y="271" width="550" height="100" rx="2" fill="#241a10" opacity="0.6"/>
  <!-- Desk legs -->
  <rect x="70" y="271" width="12" height="129" fill="#3d2b1f"/>
  <rect x="578" y="271" width="12" height="129" fill="#3d2b1f"/>

  <!-- ======================== MONITOR ======================== -->
  <!-- Monitor stand -->
  <rect x="340" y="230" width="60" height="25" rx="2" fill="#2d333b"/>
  <rect x="355" y="222" width="30" height="14" fill="#2d333b"/>
  <!-- Monitor body -->
  <rect x="260" y="100" width="220" height="128" rx="6" fill="#1c2028" stroke="#30363d" stroke-width="2.5" filter="url(#shadow)"/>
  <!-- Screen -->
  <rect x="270" y="108" width="200" height="108" rx="3" fill="#0d1117"/>
  <!-- Screen reflection -->
  <rect x="270" y="108" width="200" height="108" rx="3" fill="#58a6ff" opacity="0.02"/>

  <!-- Code on screen -->
  <g font-family="'JetBrains Mono', 'Fira Code', Consolas, monospace" font-size="7">
    <!-- Line numbers -->
    <text x="276" y="122" fill="#484f58">1</text>
    <text x="276" y="132" fill="#484f58">2</text>
    <text x="276" y="142" fill="#484f58">3</text>
    <text x="276" y="152" fill="#484f58">4</text>
    <text x="276" y="162" fill="#484f58">5</text>
    <text x="276" y="172" fill="#484f58">6</text>
    <text x="276" y="182" fill="#484f58">7</text>
    <text x="276" y="192" fill="#484f58">8</text>
    <text x="276" y="202" fill="#484f58">9</text>
    
    <!-- Code line 1 -->
    <text x="290" y="122" fill="#ff7b72">const</text>
    <text x="315" y="122" fill="#c9d1d9">product</text>
    <text x="352" y="122" fill="#ff7b72">=</text>
    <text x="360" y="122" fill="#c9d1d9">{</text>
    
    <!-- Code line 2 -->
    <text x="298" y="132" fill="#79c0ff">name</text>
    <text x="318" y="132" fill="#c9d1d9">:</text>
    <text x="325" y="132" fill="#a5d6ff">'Polish Rye'</text>
    <text x="388" y="132" fill="#c9d1d9">,</text>
    
    <!-- Code line 3 -->
    <text x="298" y="142" fill="#79c0ff">score</text>
    <text x="323" y="142" fill="#c9d1d9">:</text>
    <text x="330" y="142" fill="#79c0ff">calculateScore</text>
    <text x="397" y="142" fill="#c9d1d9">(</text>
    
    <!-- Code line 4 -->
    <text x="306" y="152" fill="#79c0ff">factors</text>
    <text x="342" y="152" fill="#c9d1d9">,</text>
    <text x="348" y="152" fill="#79c0ff">weights</text>
    
    <!-- Code line 5 -->
    <text x="298" y="162" fill="#c9d1d9">),</text>
    
    <!-- Code line 6 -->
    <text x="298" y="172" fill="#79c0ff">ean</text>
    <text x="315" y="172" fill="#c9d1d9">:</text>
    <text x="322" y="172" fill="#a5d6ff">'5901234123457'</text>
    <text x="400" y="172" fill="#c9d1d9">,</text>
    
    <!-- Code line 7 -->
    <text x="298" y="182" fill="#79c0ff">verified</text>
    <text x="340" y="182" fill="#c9d1d9">:</text>
    <text x="347" y="182" fill="#ff7b72">true</text>
    
    <!-- Code line 8 -->
    <text x="290" y="192" fill="#c9d1d9">};</text>
    
    <!-- Code line 9 - cursor blinking -->
    <text x="290" y="202" fill="#484f58">|</text>
    <rect x="290" y="196" width="5" height="8" fill="#58a6ff" rx="1">
      <animate attributeName="opacity" values="1;0;1" dur="1.1s" repeatCount="indefinite"/>
    </rect>
  </g>

  <!-- Monitor power LED -->
  <circle cx="370" cy="223" r="1.5" fill="#39d353">
    <animate attributeName="opacity" values="0.8;0.4;0.8" dur="3s" repeatCount="indefinite"/>
  </circle>

  <!-- ======================== KEYBOARD ======================== -->
  <rect x="300" y="260" width="120" height="30" rx="3" fill="#21262d" stroke="#30363d" stroke-width="1"/>
  <!-- Keyboard keys (simplified rows) -->
  <g fill="#2d333b" stroke="#3d444d" stroke-width="0.3">
    <rect x="305" y="264" width="8" height="6" rx="1"/>
    <rect x="315" y="264" width="8" height="6" rx="1"/>
    <rect x="325" y="264" width="8" height="6" rx="1"/>
    <rect x="335" y="264" width="8" height="6" rx="1"/>
    <rect x="345" y="264" width="8" height="6" rx="1"/>
    <rect x="355" y="264" width="8" height="6" rx="1"/>
    <rect x="365" y="264" width="8" height="6" rx="1"/>
    <rect x="375" y="264" width="8" height="6" rx="1"/>
    <rect x="385" y="264" width="8" height="6" rx="1"/>
    <rect x="395" y="264" width="8" height="6" rx="1"/>
    <rect x="405" y="264" width="8" height="6" rx="1"/>
    <!-- Row 2 -->
    <rect x="308" y="272" width="8" height="6" rx="1"/>
    <rect x="318" y="272" width="8" height="6" rx="1"/>
    <rect x="328" y="272" width="8" height="6" rx="1"/>
    <rect x="338" y="272" width="8" height="6" rx="1"/>
    <rect x="348" y="272" width="8" height="6" rx="1"/>
    <rect x="358" y="272" width="8" height="6" rx="1"/>
    <rect x="368" y="272" width="8" height="6" rx="1"/>
    <rect x="378" y="272" width="8" height="6" rx="1"/>
    <rect x="388" y="272" width="8" height="6" rx="1"/>
    <rect x="398" y="272" width="8" height="6" rx="1"/>
    <!-- Spacebar -->
    <rect x="325" y="280" width="70" height="6" rx="2"/>
  </g>

  <!-- ======================== COFFEE MUG ======================== -->
  <rect x="242" y="235" width="22" height="20" rx="3" fill="#3d3d3d" stroke="#555" stroke-width="1"/>
  <!-- Handle -->
  <path d="M 264 240 Q 274 240 274 248 Q 274 254 264 254" fill="none" stroke="#555" stroke-width="1.5"/>
  <!-- Coffee surface -->
  <ellipse cx="253" cy="237" rx="9" ry="2" fill="url(#coffeeGrad)"/>
  <!-- Steam -->
  <path d="M 248 232 Q 245 225 250 220" fill="none" stroke="#8b949e" stroke-width="0.8" opacity="0.4">
    <animate attributeName="d" values="M 248 232 Q 245 225 250 220;M 248 232 Q 251 225 248 218;M 248 232 Q 245 225 250 220" dur="3s" repeatCount="indefinite"/>
    <animate attributeName="opacity" values="0.4;0.15;0.4" dur="3s" repeatCount="indefinite"/>
  </path>
  <path d="M 255 232 Q 258 224 254 217" fill="none" stroke="#8b949e" stroke-width="0.8" opacity="0.3">
    <animate attributeName="d" values="M 255 232 Q 258 224 254 217;M 255 232 Q 252 224 256 215;M 255 232 Q 258 224 254 217" dur="3.5s" repeatCount="indefinite"/>
    <animate attributeName="opacity" values="0.3;0.1;0.3" dur="3.5s" repeatCount="indefinite"/>
  </path>

  <!-- ======================== DESK PLANT (left) ======================== -->
  <!-- Pot -->
  <path d="M 82 255 L 78 228 L 118 228 L 114 255 Z" fill="#8b5e3c" stroke="#6d4a30" stroke-width="1"/>
  <rect x="75" y="222" width="46" height="8" rx="3" fill="#8b5e3c" stroke="#6d4a30" stroke-width="0.5"/>
  <!-- Soil -->
  <ellipse cx="98" cy="226" rx="18" ry="3" fill="#3d2b1f"/>
  <!-- Plant leaves -->
  <path d="M 98 222 Q 80 190 70 170" fill="none" stroke="#2ea043" stroke-width="2"/>
  <ellipse cx="68" cy="168" rx="12" ry="7" fill="url(#leafGrad)" transform="rotate(-30 68 168)"/>
  <path d="M 98 222 Q 88 195 95 165" fill="none" stroke="#238636" stroke-width="2"/>
  <ellipse cx="95" cy="162" rx="10" ry="6" fill="url(#leafGrad2)" transform="rotate(5 95 162)"/>
  <path d="M 98 222 Q 110 195 125 175" fill="none" stroke="#2ea043" stroke-width="2"/>
  <ellipse cx="127" cy="173" rx="11" ry="6.5" fill="url(#leafGrad)" transform="rotate(25 127 173)"/>
  <path d="M 98 222 Q 105 200 118 190" fill="none" stroke="#196c2e" stroke-width="1.5"/>
  <ellipse cx="120" cy="188" rx="8" ry="5" fill="url(#leafGrad2)" transform="rotate(35 120 188)"/>
  <path d="M 98 222 Q 85 200 75 190" fill="none" stroke="#196c2e" stroke-width="1.5"/>
  <ellipse cx="73" cy="188" rx="9" ry="5" fill="#2ea043" transform="rotate(-25 73 188)"/>
  <!-- Small drooping leaf -->
  <path d="M 98 222 Q 100 208 110 205" fill="none" stroke="#39d353" stroke-width="1"/>
  <ellipse cx="112" cy="204" rx="6" ry="3.5" fill="#39d353" transform="rotate(15 112 204)"/>

  <!-- ======================== CHARACTER ======================== -->
  <g transform="translate(350, 135)">
    <!-- Body / Sweater -->
    <path d="M -30 80 Q -45 85 -55 110 L -50 125 L 50 125 L 55 110 Q 45 85 30 80 Q 15 72 0 72 Q -15 72 -30 80" fill="url(#sweaterGrad)" stroke="#1a1c24" stroke-width="0.5"/>
    
    <!-- Sweater collar / white t-shirt visible -->
    <path d="M -8 72 Q 0 78 8 72" fill="#d4d4d4" stroke="none"/>
    
    <!-- Zipper line -->
    <line x1="0" y1="74" x2="0" y2="125" stroke="#484f58" stroke-width="1" stroke-dasharray="2,3"/>
    <!-- Zipper pull -->
    <rect x="-2" y="80" width="4" height="5" rx="1" fill="#6e7681"/>
    
    <!-- Neck -->
    <rect x="-8" y="62" width="16" height="14" rx="3" fill="url(#skinTone)"/>
    
    <!-- Head -->
    <ellipse cx="0" cy="40" rx="28" ry="30" fill="url(#skinTone)"/>
    
    <!-- Ears -->
    <ellipse cx="-27" cy="42" rx="5" ry="7" fill="#c49660"/>
    <ellipse cx="27" cy="42" rx="5" ry="7" fill="#c49660"/>
    
    <!-- Hair (curly dark hair) -->
    <g fill="#1a1a1a">
      <!-- Main hair mass on top -->
      <ellipse cx="0" cy="16" rx="28" ry="14" fill="#1a1a1a"/>
      <!-- Curly bits -->
      <circle cx="-20" cy="12" r="7" fill="#222"/>
      <circle cx="-10" cy="8" r="8" fill="#1a1a1a"/>
      <circle cx="2" cy="6" r="8" fill="#222"/>
      <circle cx="14" cy="8" r="7" fill="#1a1a1a"/>
      <circle cx="22" cy="12" r="6" fill="#222"/>
      <circle cx="-16" cy="6" r="5" fill="#2a2a2a"/>
      <circle cx="8" cy="5" r="6" fill="#2a2a2a"/>
      <circle cx="-24" cy="18" r="5" fill="#222"/>
      <circle cx="24" cy="18" r="5" fill="#222"/>
      <!-- Side hair -->
      <ellipse cx="-27" cy="30" rx="5" ry="8" fill="#1a1a1a"/>
      <ellipse cx="27" cy="30" rx="5" ry="8" fill="#1a1a1a"/>
      <!-- Forehead curls -->
      <circle cx="-6" cy="11" r="5" fill="#2a2a2a"/>
      <circle cx="-18" cy="14" r="4" fill="#2a2a2a"/>
      <circle cx="18" cy="14" r="4" fill="#2a2a2a"/>
    </g>
    
    <!-- Eyebrows -->
    <path d="M -16 30 Q -11 27 -6 30" fill="none" stroke="#2a2a2a" stroke-width="1.8" stroke-linecap="round"/>
    <path d="M 6 30 Q 11 27 16 30" fill="none" stroke="#2a2a2a" stroke-width="1.8" stroke-linecap="round"/>
    
    <!-- Glasses frame -->
    <g fill="none" stroke="#1a1a1a" stroke-width="2">
      <rect x="-20" y="33" width="17" height="12" rx="3"/>
      <rect x="3" y="33" width="17" height="12" rx="3"/>
      <!-- Bridge -->
      <path d="M -3 38 Q 0 36 3 38"/>
      <!-- Temple arms -->
      <line x1="-20" y1="36" x2="-27" y2="35"/>
      <line x1="20" y1="36" x2="27" y2="35"/>
    </g>
    <!-- Lens reflection -->
    <rect x="-17" y="35" width="3" height="2" rx="0.5" fill="#fff" opacity="0.15"/>
    <rect x="6" y="35" width="3" height="2" rx="0.5" fill="#fff" opacity="0.15"/>
    
    <!-- Eyes -->
    <ellipse cx="-11" cy="39" rx="3" ry="3" fill="#2a1a0a"/>
    <ellipse cx="11" cy="39" rx="3" ry="3" fill="#2a1a0a"/>
    <!-- Eye highlights -->
    <circle cx="-10" cy="38" r="1" fill="#fff" opacity="0.7"/>
    <circle cx="12" cy="38" r="1" fill="#fff" opacity="0.7"/>
    
    <!-- Nose -->
    <path d="M 0 40 Q 2 46 0 48" fill="none" stroke="#b8875c" stroke-width="1" stroke-linecap="round"/>
    
    <!-- Smile -->
    <path d="M -10 52 Q -5 59 0 59 Q 5 59 10 52" fill="none" stroke="#8b5e3c" stroke-width="1.5" stroke-linecap="round"/>
    <!-- Teeth hint -->
    <path d="M -7 53 Q 0 60 7 53" fill="#fff" opacity="0.9"/>
    
    <!-- Stubble dots -->
    <g fill="#8b7355" opacity="0.25">
      <circle cx="-14" cy="55" r="0.5"/>
      <circle cx="-12" cy="57" r="0.5"/>
      <circle cx="-10" cy="59" r="0.4"/>
      <circle cx="-8" cy="56" r="0.5"/>
      <circle cx="14" cy="55" r="0.5"/>
      <circle cx="12" cy="57" r="0.5"/>
      <circle cx="10" cy="59" r="0.4"/>
      <circle cx="8" cy="56" r="0.5"/>
      <circle cx="-6" cy="61" r="0.4"/>
      <circle cx="-3" cy="62" r="0.4"/>
      <circle cx="0" cy="63" r="0.4"/>
      <circle cx="3" cy="62" r="0.4"/>
      <circle cx="6" cy="61" r="0.4"/>
    </g>
    
    <!-- Arms going to keyboard -->
    <!-- Left arm -->
    <path d="M -40 105 Q -55 112 -50 125 Q -45 138 -10 130" fill="url(#sweaterGrad)" stroke="#1a1c24" stroke-width="0.5"/>
    <!-- Right arm -->
    <path d="M 40 105 Q 55 112 50 125 Q 45 138 10 130" fill="url(#sweaterGrad)" stroke="#1a1c24" stroke-width="0.5"/>
    
    <!-- Hands on keyboard -->
    <ellipse cx="-12" cy="130" rx="10" ry="5" fill="url(#skinTone)" transform="rotate(-5 -12 130)"/>
    <ellipse cx="12" cy="130" rx="10" ry="5" fill="url(#skinTone)" transform="rotate(5 12 130)"/>
    <!-- Finger separation hints -->
    <line x1="-16" y1="128" x2="-16" y2="132" stroke="#b8875c" stroke-width="0.3" opacity="0.4"/>
    <line x1="-12" y1="127" x2="-12" y2="131" stroke="#b8875c" stroke-width="0.3" opacity="0.4"/>
    <line x1="-8" y1="128" x2="-8" y2="132" stroke="#b8875c" stroke-width="0.3" opacity="0.4"/>
    <line x1="16" y1="128" x2="16" y2="132" stroke="#b8875c" stroke-width="0.3" opacity="0.4"/>
    <line x1="12" y1="127" x2="12" y2="131" stroke="#b8875c" stroke-width="0.3" opacity="0.4"/>
    <line x1="8" y1="128" x2="8" y2="132" stroke="#b8875c" stroke-width="0.3" opacity="0.4"/>
  </g>

  <!-- ======================== DESK LAMP ======================== -->
  <!-- Lamp base -->
  <ellipse cx="185" cy="254" rx="18" ry="4" fill="#2d333b"/>
  <!-- Lamp arm -->
  <line x1="185" y1="250" x2="180" y2="170" stroke="#484f58" stroke-width="3" stroke-linecap="round"/>
  <line x1="180" y1="170" x2="200" y2="145" stroke="#484f58" stroke-width="3" stroke-linecap="round"/>
  <!-- Lamp shade -->
  <path d="M 190 145 L 175 120 L 225 120 L 210 145 Z" fill="#2d333b" stroke="#3d444d" stroke-width="1"/>
  <!-- Lamp bulb glow -->
  <ellipse cx="200" cy="135" rx="12" ry="8" fill="#ffb347" opacity="0.3">
    <animate attributeName="opacity" values="0.3;0.2;0.3" dur="4s" repeatCount="indefinite"/>
  </ellipse>
  <circle cx="200" cy="128" r="4" fill="#ffe4b5" opacity="0.7"/>

  <!-- ======================== WALL DECORATIONS ======================== -->
  <!-- Small framed poster on wall (left of window) -->
  <rect x="630" y="60" width="30" height="40" rx="2" fill="#161b22" stroke="#30363d" stroke-width="1.5"/>
  <text x="645" y="78" text-anchor="middle" font-family="monospace" font-size="6" fill="#58a6ff" opacity="0.6">&lt;/&gt;</text>
  <text x="645" y="90" text-anchor="middle" font-family="monospace" font-size="4" fill="#8b949e" opacity="0.4">CODE</text>

  <!-- ======================== AMBIENT PARTICLES ======================== -->
  <g filter="url(#softGlow)">
    <circle cx="150" cy="100" r="1.5" fill="#ffb347" opacity="0.3">
      <animate attributeName="cy" values="100;85;100" dur="5s" repeatCount="indefinite"/>
      <animate attributeName="opacity" values="0.3;0.5;0.3" dur="5s" repeatCount="indefinite"/>
    </circle>
    <circle cx="500" cy="80" r="1" fill="#58a6ff" opacity="0.2">
      <animate attributeName="cy" values="80;65;80" dur="4s" repeatCount="indefinite"/>
      <animate attributeName="opacity" values="0.2;0.4;0.2" dur="4s" repeatCount="indefinite"/>
    </circle>
    <circle cx="680" cy="200" r="1.2" fill="#bc8cff" opacity="0.2">
      <animate attributeName="cy" values="200;185;200" dur="3.5s" repeatCount="indefinite"/>
      <animate attributeName="opacity" values="0.2;0.4;0.2" dur="3.5s" repeatCount="indefinite"/>
    </circle>
  </g>

  <!-- ======================== FLOOR ======================== -->
  <rect x="0" y="385" width="900" height="15" fill="#14181f" rx="0"/>

  <!-- ======================== TEXT OVERLAY (right side) ======================== -->
  <g transform="translate(710, 210)">
    <!-- Name -->
    <text x="0" y="0" text-anchor="middle" font-family="'Inter', 'Segoe UI', Arial, sans-serif" font-weight="800" font-size="36" fill="url(#nameGrad)" filter="url(#glow)">
      ericsocrat
    </text>
    
    <!-- Animated underline -->
    <line x1="-100" y1="10" x2="100" y2="10" stroke="url(#lineGrad)" stroke-width="1.5" stroke-linecap="round">
      <animate attributeName="x1" values="-50;-100;-50" dur="6s" repeatCount="indefinite"/>
      <animate attributeName="x2" values="50;100;50" dur="6s" repeatCount="indefinite"/>
    </line>
    
    <!-- Title -->
    <text x="0" y="32" text-anchor="middle" font-family="'JetBrains Mono', 'Fira Code', monospace" font-size="10" fill="#8b949e" letter-spacing="2">
      Product Builder
    </text>
    <text x="0" y="46" text-anchor="middle" font-family="'JetBrains Mono', 'Fira Code', monospace" font-size="10" fill="#8b949e" letter-spacing="2">
      &amp; AI Strategist
    </text>
    
    <!-- Small tech pills -->
    <g font-family="'JetBrains Mono', monospace" font-size="8" text-anchor="middle">
      <rect x="-75" y="58" width="45" height="16" rx="8" fill="#161b22" stroke="#58a6ff" stroke-width="0.6" opacity="0.7"/>
      <text x="-52" y="69" fill="#58a6ff">Next.js</text>
      
      <rect x="-22" y="58" width="45" height="16" rx="8" fill="#161b22" stroke="#39d353" stroke-width="0.6" opacity="0.7"/>
      <text x="1" y="69" fill="#39d353">Python</text>
      
      <rect x="30" y="58" width="45" height="16" rx="8" fill="#161b22" stroke="#bc8cff" stroke-width="0.6" opacity="0.7"/>
      <text x="53" y="69" fill="#bc8cff">PgSQL</text>
    </g>
    
    <!-- Cursor + tagline -->
    <rect x="-2" y="86" width="2" height="12" fill="#39d353" rx="0.5">
      <animate attributeName="opacity" values="1;0;1" dur="1.2s" repeatCount="indefinite"/>
    </rect>
    <text x="0" y="96" text-anchor="middle" font-family="'JetBrains Mono', monospace" font-size="7.5" fill="#6e7681">building things that matter</text>
  </g>

  <!-- ======================== CORNER ACCENTS ======================== -->
  <path d="M 15 25 L 15 12 L 28 12" stroke="#58a6ff" stroke-width="1.5" fill="none" opacity="0.25">
    <animate attributeName="opacity" values="0.25;0.5;0.25" dur="3s" repeatCount="indefinite"/>
  </path>
  <path d="M 885 25 L 885 12 L 872 12" stroke="#39d353" stroke-width="1.5" fill="none" opacity="0.25">
    <animate attributeName="opacity" values="0.25;0.5;0.25" dur="3s" repeatCount="indefinite" begin="1s"/>
  </path>
  <path d="M 15 375 L 15 388 L 28 388" stroke="#bc8cff" stroke-width="1.5" fill="none" opacity="0.25">
    <animate attributeName="opacity" values="0.25;0.5;0.25" dur="3s" repeatCount="indefinite" begin="2s"/>
  </path>
  <path d="M 885 375 L 885 388 L 872 388" stroke="#f0883e" stroke-width="1.5" fill="none" opacity="0.25">
    <animate attributeName="opacity" values="0.25;0.5;0.25" dur="3s" repeatCount="indefinite" begin="0.5s"/>
  </path>
</svg>