<svg xmlns="http://www.w3.org/2000/svg" viewBox="0 0 900 450" width="900" height="450">
  <defs>
    <!-- Room wall gradient - warmer -->
    <linearGradient id="wallBg" x1="0%" y1="0%" x2="0%" y2="100%">
      <stop offset="0%" style="stop-color:#1c1f2e"/>
      <stop offset="60%" style="stop-color:#151821"/>
      <stop offset="100%" style="stop-color:#0e1018"/>
    </linearGradient>
    <!-- Warm ambient glow from lamp -->
    <radialGradient id="lampGlow" cx="18%" cy="25%" r="45%">
      <stop offset="0%" style="stop-color:#ffb347;stop-opacity:0.18"/>
      <stop offset="40%" style="stop-color:#ff9f1c;stop-opacity:0.06"/>
      <stop offset="100%" style="stop-color:#ff9f1c;stop-opacity:0"/>
    </radialGradient>
    <!-- Screen glow -->
    <radialGradient id="screenGlow" cx="48%" cy="45%" r="30%">
      <stop offset="0%" style="stop-color:#58a6ff;stop-opacity:0.08"/>
      <stop offset="100%" style="stop-color:#58a6ff;stop-opacity:0"/>
    </radialGradient>
    <!-- String light warm glow -->
    <radialGradient id="bulbGlow" cx="50%" cy="50%" r="50%">
      <stop offset="0%" style="stop-color:#ffe4a8;stop-opacity:0.9"/>
      <stop offset="40%" style="stop-color:#ffcc66;stop-opacity:0.4"/>
      <stop offset="100%" style="stop-color:#ffaa00;stop-opacity:0"/>
    </radialGradient>
    <!-- Night window -->
    <linearGradient id="nightSky" x1="0%" y1="0%" x2="0%" y2="100%">
      <stop offset="0%" style="stop-color:#070b18"/>
      <stop offset="100%" style="stop-color:#0f1528"/>
    </linearGradient>
    <!-- Name gradient -->
    <linearGradient id="nameGrad" x1="0%" y1="0%" x2="100%" y2="0%">
      <stop offset="0%" style="stop-color:#58a6ff"/>
      <stop offset="50%" style="stop-color:#bc8cff"/>
      <stop offset="100%" style="stop-color:#39d353"/>
    </linearGradient>
    <!-- Desk wood -->
    <linearGradient id="deskWood" x1="0%" y1="0%" x2="0%" y2="100%">
      <stop offset="0%" style="stop-color:#4a3425"/>
      <stop offset="50%" style="stop-color:#3d2b1f"/>
      <stop offset="100%" style="stop-color:#2e1f15"/>
    </linearGradient>
    <!-- Desk edge highlight -->
    <linearGradient id="deskEdge" x1="0%" y1="0%" x2="0%" y2="100%">
      <stop offset="0%" style="stop-color:#5a4030"/>
      <stop offset="100%" style="stop-color:#3d2b1f"/>
    </linearGradient>
    <!-- Skin tone (lighter warm beige) -->
    <linearGradient id="skinTone" x1="0%" y1="0%" x2="0%" y2="100%">
      <stop offset="0%" style="stop-color:#e0b88a"/>
      <stop offset="100%" style="stop-color:#d4a574"/>
    </linearGradient>
    <!-- Sweater -->
    <linearGradient id="sweaterGrad" x1="0%" y1="0%" x2="0%" y2="100%">
      <stop offset="0%" style="stop-color:#22242e"/>
      <stop offset="100%" style="stop-color:#181a22"/>
    </linearGradient>
    <!-- Coffee -->
    <linearGradient id="coffeeGrad" x1="0" y1="0" x2="0" y2="1">
      <stop offset="0%" style="stop-color:#5c3a1e"/>
      <stop offset="100%" style="stop-color:#3d2610"/>
    </linearGradient>
    <!-- Leaf gradients -->
    <linearGradient id="leafGrad" x1="0" y1="0" x2="1" y2="1">
      <stop offset="0%" style="stop-color:#39d353"/>
      <stop offset="100%" style="stop-color:#238636"/>
    </linearGradient>
    <linearGradient id="leafGrad2" x1="0" y1="0" x2="1" y2="1">
      <stop offset="0%" style="stop-color:#2ea043"/>
      <stop offset="100%" style="stop-color:#196c2e"/>
    </linearGradient>
    <!-- Book spines -->
    <linearGradient id="book1" x1="0" y1="0" x2="0" y2="1"><stop offset="0%" style="stop-color:#58a6ff"/><stop offset="100%" style="stop-color:#388bfd"/></linearGradient>
    <linearGradient id="book2" x1="0" y1="0" x2="0" y2="1"><stop offset="0%" style="stop-color:#bc8cff"/><stop offset="100%" style="stop-color:#8b5cf6"/></linearGradient>
    <linearGradient id="book3" x1="0" y1="0" x2="0" y2="1"><stop offset="0%" style="stop-color:#f0883e"/><stop offset="100%" style="stop-color:#d47320"/></linearGradient>
    <linearGradient id="book4" x1="0" y1="0" x2="0" y2="1"><stop offset="0%" style="stop-color:#39d353"/><stop offset="100%" style="stop-color:#238636"/></linearGradient>
    <linearGradient id="book5" x1="0" y1="0" x2="0" y2="1"><stop offset="0%" style="stop-color:#f78166"/><stop offset="100%" style="stop-color:#da6c50"/></linearGradient>
    <!-- Text area line -->
    <linearGradient id="lineGrad" x1="0%" y1="0%" x2="100%" y2="0%">
      <stop offset="0%" style="stop-color:#58a6ff;stop-opacity:0"/>
      <stop offset="50%" style="stop-color:#bc8cff;stop-opacity:0.5"/>
      <stop offset="100%" style="stop-color:#39d353;stop-opacity:0"/>
    </linearGradient>
    <!-- Chair gradient -->
    <linearGradient id="chairGrad" x1="0" y1="0" x2="0" y2="1">
      <stop offset="0%" style="stop-color:#2d333b"/>
      <stop offset="100%" style="stop-color:#21262d"/>
    </linearGradient>
    <!-- Rug gradient -->
    <linearGradient id="rugGrad" x1="0%" y1="0%" x2="100%" y2="0%">
      <stop offset="0%" style="stop-color:#2a1d35;stop-opacity:0"/>
      <stop offset="20%" style="stop-color:#2a1d35;stop-opacity:0.5"/>
      <stop offset="50%" style="stop-color:#1e1428;stop-opacity:0.6"/>
      <stop offset="80%" style="stop-color:#2a1d35;stop-opacity:0.5"/>
      <stop offset="100%" style="stop-color:#2a1d35;stop-opacity:0"/>
    </linearGradient>
    <filter id="glow"><feGaussianBlur stdDeviation="3" result="coloredBlur"/><feMerge><feMergeNode in="coloredBlur"/><feMergeNode in="SourceGraphic"/></feMerge></filter>
    <filter id="softGlow"><feGaussianBlur stdDeviation="1.5" result="coloredBlur"/><feMerge><feMergeNode in="coloredBlur"/><feMergeNode in="SourceGraphic"/></feMerge></filter>
    <filter id="shadow"><feDropShadow dx="0" dy="3" stdDeviation="5" flood-color="#000" flood-opacity="0.35"/></filter>
    <filter id="lightShadow"><feDropShadow dx="0" dy="1" stdDeviation="2" flood-color="#000" flood-opacity="0.2"/></filter>
  </defs>

  <!-- ======== ROOM ======== -->
  <rect width="900" height="450" fill="url(#wallBg)" rx="12"/>
  <!-- Warm ambient glows -->
  <ellipse cx="160" cy="110" rx="280" ry="220" fill="url(#lampGlow)"/>
  <ellipse cx="420" cy="210" rx="220" ry="200" fill="url(#screenGlow)"/>

  <!-- ======== FAIRY / STRING LIGHTS across top wall ======== -->
  <g>
    <!-- Wire -->
    <path d="M 30 38 Q 110 55 190 38 Q 270 20 350 42 Q 430 60 510 40 Q 590 18 670 42 Q 715 52 740 44" fill="none" stroke="#3d3d3d" stroke-width="1" opacity="0.5"/>
    <!-- Bulbs with glow -->
    <circle cx="70" cy="46" r="6" fill="url(#bulbGlow)" opacity="0.7"><animate attributeName="opacity" values="0.7;0.45;0.7" dur="3s" repeatCount="indefinite"/></circle>
    <circle cx="70" cy="46" r="2.5" fill="#ffe4a8" opacity="0.9"/>
    <circle cx="150" cy="44" r="6" fill="url(#bulbGlow)" opacity="0.6"><animate attributeName="opacity" values="0.6;0.4;0.6" dur="3.5s" repeatCount="indefinite" begin="0.5s"/></circle>
    <circle cx="150" cy="44" r="2.5" fill="#ffe4a8" opacity="0.9"/>
    <circle cx="230" cy="32" r="6" fill="url(#bulbGlow)" opacity="0.65"><animate attributeName="opacity" values="0.65;0.4;0.65" dur="4s" repeatCount="indefinite" begin="1s"/></circle>
    <circle cx="230" cy="32" r="2.5" fill="#ffe4a8" opacity="0.9"/>
    <circle cx="310" cy="38" r="6" fill="url(#bulbGlow)" opacity="0.7"><animate attributeName="opacity" values="0.7;0.5;0.7" dur="2.8s" repeatCount="indefinite" begin="0.3s"/></circle>
    <circle cx="310" cy="38" r="2.5" fill="#ffe4a8" opacity="0.9"/>
    <circle cx="390" cy="50" r="6" fill="url(#bulbGlow)" opacity="0.6"><animate attributeName="opacity" values="0.6;0.35;0.6" dur="3.8s" repeatCount="indefinite" begin="1.5s"/></circle>
    <circle cx="390" cy="50" r="2.5" fill="#ffe4a8" opacity="0.9"/>
    <circle cx="470" cy="42" r="6" fill="url(#bulbGlow)" opacity="0.65"><animate attributeName="opacity" values="0.65;0.38;0.65" dur="3.2s" repeatCount="indefinite" begin="0.8s"/></circle>
    <circle cx="470" cy="42" r="2.5" fill="#ffe4a8" opacity="0.9"/>
    <circle cx="550" cy="30" r="6" fill="url(#bulbGlow)" opacity="0.7"><animate attributeName="opacity" values="0.7;0.42;0.7" dur="4.2s" repeatCount="indefinite" begin="2s"/></circle>
    <circle cx="550" cy="30" r="2.5" fill="#ffe4a8" opacity="0.9"/>
    <circle cx="630" cy="38" r="6" fill="url(#bulbGlow)" opacity="0.6"><animate attributeName="opacity" values="0.6;0.35;0.6" dur="3.6s" repeatCount="indefinite" begin="1.2s"/></circle>
    <circle cx="630" cy="38" r="2.5" fill="#ffe4a8" opacity="0.9"/>
    <circle cx="700" cy="46" r="6" fill="url(#bulbGlow)" opacity="0.55"><animate attributeName="opacity" values="0.55;0.3;0.55" dur="3.4s" repeatCount="indefinite" begin="0.6s"/></circle>
    <circle cx="700" cy="46" r="2.5" fill="#ffe4a8" opacity="0.9"/>
  </g>

  <!-- ======== WINDOW with snow ======== -->
  <rect x="705" y="55" width="150" height="130" rx="5" fill="url(#nightSky)" stroke="#3a3228" stroke-width="3.5"/>
  <!-- Window frame -->
  <line x1="780" y1="55" x2="780" y2="185" stroke="#3a3228" stroke-width="3"/>
  <line x1="705" y1="120" x2="855" y2="120" stroke="#3a3228" stroke-width="3"/>
  <!-- Window sill -->
  <rect x="700" y="183" width="160" height="7" rx="2" fill="#3a3228"/>
  <!-- Stars -->
  <circle cx="725" cy="75" r="1.3" fill="#e8e8e8" opacity="0.8"><animate attributeName="opacity" values="0.8;0.25;0.8" dur="3.2s" repeatCount="indefinite"/></circle>
  <circle cx="750" cy="90" r="0.8" fill="#e8e8e8" opacity="0.5"><animate attributeName="opacity" values="0.5;0.15;0.5" dur="4.5s" repeatCount="indefinite"/></circle>
  <circle cx="810" cy="70" r="1.1" fill="#e8e8e8" opacity="0.6"><animate attributeName="opacity" values="0.6;0.15;0.6" dur="2.8s" repeatCount="indefinite"/></circle>
  <circle cx="840" cy="90" r="0.6" fill="#e8e8e8" opacity="0.4"><animate attributeName="opacity" values="0.4;0.1;0.4" dur="4s" repeatCount="indefinite"/></circle>
  <circle cx="730" cy="140" r="0.7" fill="#e8e8e8" opacity="0.35"><animate attributeName="opacity" values="0.35;0.1;0.35" dur="5s" repeatCount="indefinite"/></circle>
  <circle cx="820" cy="150" r="0.9" fill="#e8e8e8" opacity="0.45"><animate attributeName="opacity" values="0.45;0.1;0.45" dur="3.6s" repeatCount="indefinite"/></circle>
  <!-- Moon -->
  <circle cx="835" cy="78" r="14" fill="#ede2ce" opacity="0.9"/>
  <circle cx="841" cy="74" r="11.5" fill="url(#nightSky)" opacity="0.85"/>
  <!-- Moon glow -->
  <circle cx="835" cy="78" r="22" fill="#ede2ce" opacity="0.04"/>
  <!-- Snowflakes falling -->
  <g fill="#fff" opacity="0.5">
    <circle cx="720" cy="100" r="1"><animate attributeName="cy" values="65;175" dur="6s" repeatCount="indefinite"/><animate attributeName="cx" values="720;725" dur="6s" repeatCount="indefinite"/><animate attributeName="opacity" values="0.5;0.2" dur="6s" repeatCount="indefinite"/></circle>
    <circle cx="745" cy="80" r="0.7"><animate attributeName="cy" values="60;170" dur="5s" repeatCount="indefinite" begin="1s"/><animate attributeName="cx" values="745;740" dur="5s" repeatCount="indefinite" begin="1s"/></circle>
    <circle cx="770" cy="95" r="0.9"><animate attributeName="cy" values="58;175" dur="7s" repeatCount="indefinite" begin="2s"/><animate attributeName="cx" values="770;775" dur="7s" repeatCount="indefinite" begin="2s"/></circle>
    <circle cx="800" cy="85" r="0.8"><animate attributeName="cy" values="62;178" dur="5.5s" repeatCount="indefinite" begin="0.5s"/></circle>
    <circle cx="825" cy="105" r="1"><animate attributeName="cy" values="65;172" dur="6.5s" repeatCount="indefinite" begin="1.5s"/><animate attributeName="cx" values="825;820" dur="6.5s" repeatCount="indefinite" begin="1.5s"/></circle>
    <circle cx="845" cy="90" r="0.6"><animate attributeName="cy" values="60;180" dur="4.8s" repeatCount="indefinite" begin="3s"/></circle>
    <circle cx="735" cy="130" r="0.7"><animate attributeName="cy" values="70;178" dur="5.2s" repeatCount="indefinite" begin="2.5s"/></circle>
    <circle cx="810" cy="110" r="0.8"><animate attributeName="cy" values="68;176" dur="6.8s" repeatCount="indefinite" begin="0.8s"/></circle>
  </g>

  <!-- ======== SHELF with books (upper left) ======== -->
  <rect x="55" y="82" width="135" height="7" rx="2" fill="url(#deskEdge)" stroke="#2a1d14" stroke-width="0.5"/>
  <!-- Books -->
  <rect x="63" y="40" width="15" height="42" rx="1.5" fill="url(#book1)"/>
  <text x="70" y="68" text-anchor="middle" font-family="serif" font-size="4" fill="#fff" opacity="0.4" transform="rotate(-90 70 60)">Next.js</text>
  <rect x="80" y="48" width="13" height="34" rx="1.5" fill="url(#book2)"/>
  <rect x="95" y="44" width="16" height="38" rx="1.5" fill="url(#book3)"/>
  <text x="103" y="68" text-anchor="middle" font-family="serif" font-size="4" fill="#fff" opacity="0.4" transform="rotate(-90 103 60)">Python</text>
  <rect x="113" y="50" width="12" height="32" rx="1.5" fill="url(#book4)"/>
  <rect x="127" y="46" width="14" height="36" rx="1.5" fill="url(#book5)"/>
  <rect x="143" y="43" width="15" height="39" rx="1.5" fill="#8b5cf6"/>
  <rect x="160" y="52" width="11" height="30" rx="1.5" fill="#58a6ff" opacity="0.7"/>
  <!-- Bookend / small figure -->
  <rect x="173" y="60" width="8" height="22" rx="2" fill="#484f58"/>
  <circle cx="177" cy="57" r="4" fill="#484f58"/>

  <!-- ======== POTTED PLANT (shelf) ======== -->
  <rect x="60" y="68" width="14" height="14" rx="3" fill="#6d4a30"/>
  <ellipse cx="67" cy="64" rx="9" ry="7" fill="url(#leafGrad)"/>
  <ellipse cx="62" cy="60" rx="5" ry="6" fill="url(#leafGrad2)"/>
  <ellipse cx="72" cy="61" rx="5" ry="5" fill="#2ea043"/>

  <!-- ======== FRAMED ART on wall (small) ======== -->
  <rect x="640" y="70" width="36" height="48" rx="2" fill="#161b22" stroke="#3a3228" stroke-width="2"/>
  <!-- Little code/graph art inside frame -->
  <polyline points="648,100 654,90 660,95 666,82" fill="none" stroke="#39d353" stroke-width="1.5" opacity="0.5"/>
  <polyline points="648,102 656,96 662,99 668,88" fill="none" stroke="#58a6ff" stroke-width="1" opacity="0.3"/>

  <!-- ======== DESK ======== -->
  <rect x="40" y="290" width="580" height="18" rx="3" fill="url(#deskEdge)" filter="url(#shadow)"/>
  <!-- Wood grain lines -->
  <line x1="60" y1="296" x2="600" y2="296" stroke="#5a4030" stroke-width="0.3" opacity="0.3"/>
  <line x1="55" y1="300" x2="610" y2="300" stroke="#4a3425" stroke-width="0.3" opacity="0.2"/>
  <!-- Desk front panel -->
  <rect x="50" y="308" width="560" height="110" rx="2" fill="#1e1510" opacity="0.5"/>
  <!-- Desk legs -->
  <rect x="65" y="308" width="14" height="142" fill="url(#deskWood)"/>
  <rect x="581" y="308" width="14" height="142" fill="url(#deskWood)"/>
  <!-- Rug visible on floor -->
  <ellipse cx="330" cy="440" rx="280" ry="18" fill="url(#rugGrad)"/>

  <!-- ======== MONITOR ======== -->
  <!-- Stand base -->
  <ellipse cx="370" cy="289" rx="35" ry="5" fill="#21262d"/>
  <!-- Stand neck -->
  <rect x="360" y="260" width="20" height="30" rx="2" fill="#2d333b"/>
  <!-- Monitor body -->
  <rect x="255" y="115" width="230" height="150" rx="8" fill="#1c2028" stroke="#30363d" stroke-width="2.5" filter="url(#shadow)"/>
  <!-- Screen -->
  <rect x="266" y="124" width="208" height="128" rx="4" fill="#0d1117"/>
  <!-- Screen subtle reflection -->
  <rect x="266" y="124" width="208" height="40" rx="4" fill="#fff" opacity="0.012"/>

  <!-- ======= TOOL ICONS ON MONITOR (4x2 grid) ======= -->
  <g transform="translate(290, 140)">
    <!-- Row 1 -->
    <!-- VS Code icon -->
    <g transform="translate(0,0)">
      <rect x="0" y="0" width="32" height="32" rx="6" fill="#1e1e1e" stroke="#333" stroke-width="0.5"/>
      <path d="M 8 8 L 24 4 L 24 28 L 8 24 L 16 16 Z" fill="#007ACC" opacity="0.8"/>
      <text x="16" y="38" text-anchor="middle" font-family="'Inter', sans-serif" font-size="5" fill="#6e7681">VS Code</text>
    </g>
    <!-- GitHub icon -->
    <g transform="translate(44,0)">
      <rect x="0" y="0" width="32" height="32" rx="6" fill="#1e1e1e" stroke="#333" stroke-width="0.5"/>
      <circle cx="16" cy="14" r="8" fill="#fff" opacity="0.85"/>
      <circle cx="16" cy="14" r="3" fill="#1e1e1e"/>
      <ellipse cx="16" cy="22" rx="5" ry="3" fill="#fff" opacity="0.85"/>
      <text x="16" y="38" text-anchor="middle" font-family="'Inter', sans-serif" font-size="5" fill="#6e7681">GitHub</text>
    </g>
    <!-- Copilot icon -->
    <g transform="translate(88,0)">
      <rect x="0" y="0" width="32" height="32" rx="6" fill="#1e1e1e" stroke="#333" stroke-width="0.5"/>
      <circle cx="12" cy="14" r="5" fill="none" stroke="#58a6ff" stroke-width="1.5"/>
      <circle cx="20" cy="14" r="5" fill="none" stroke="#bc8cff" stroke-width="1.5"/>
      <circle cx="12" cy="14" r="1.5" fill="#58a6ff"/>
      <circle cx="20" cy="14" r="1.5" fill="#bc8cff"/>
      <path d="M 10 22 Q 16 26 22 22" fill="none" stroke="#8b949e" stroke-width="1" stroke-linecap="round"/>
      <text x="16" y="38" text-anchor="middle" font-family="'Inter', sans-serif" font-size="5" fill="#6e7681">Copilot</text>
    </g>
    <!-- Next.js icon -->
    <g transform="translate(132,0)">
      <rect x="0" y="0" width="32" height="32" rx="6" fill="#1e1e1e" stroke="#333" stroke-width="0.5"/>
      <circle cx="16" cy="16" r="10" fill="#000" stroke="#fff" stroke-width="1"/>
      <text x="16" y="19" text-anchor="middle" font-family="'Inter', sans-serif" font-weight="700" font-size="8" fill="#fff">N</text>
      <text x="16" y="38" text-anchor="middle" font-family="'Inter', sans-serif" font-size="5" fill="#6e7681">Next.js</text>
    </g>

    <!-- Row 2 -->
    <!-- Supabase icon -->
    <g transform="translate(0,50)">
      <rect x="0" y="0" width="32" height="32" rx="6" fill="#1e1e1e" stroke="#333" stroke-width="0.5"/>
      <path d="M 16 6 L 8 18 L 16 16 L 24 18 Z" fill="#3FCF8E" opacity="0.8"/>
      <path d="M 16 26 L 24 14 L 16 16 L 8 14 Z" fill="#3FCF8E" opacity="0.5"/>
      <text x="16" y="38" text-anchor="middle" font-family="'Inter', sans-serif" font-size="5" fill="#6e7681">Supabase</text>
    </g>
    <!-- Python icon -->
    <g transform="translate(44,50)">
      <rect x="0" y="0" width="32" height="32" rx="6" fill="#1e1e1e" stroke="#333" stroke-width="0.5"/>
      <text x="16" y="20" text-anchor="middle" font-family="'Inter', sans-serif" font-weight="700" font-size="14" fill="#3776AB">λ</text>
      <text x="16" y="38" text-anchor="middle" font-family="'Inter', sans-serif" font-size="5" fill="#6e7681">Python</text>
    </g>
    <!-- PostgreSQL icon -->
    <g transform="translate(88,50)">
      <rect x="0" y="0" width="32" height="32" rx="6" fill="#1e1e1e" stroke="#333" stroke-width="0.5"/>
      <ellipse cx="16" cy="12" rx="8" ry="6" fill="none" stroke="#336791" stroke-width="1.5"/>
      <line x1="16" y1="18" x2="16" y2="26" stroke="#336791" stroke-width="1.5"/>
      <ellipse cx="16" cy="26" rx="4" ry="2" fill="none" stroke="#336791" stroke-width="1"/>
      <text x="16" y="38" text-anchor="middle" font-family="'Inter', sans-serif" font-size="5" fill="#6e7681">PgSQL</text>
    </g>
    <!-- Vercel icon -->
    <g transform="translate(132,50)">
      <rect x="0" y="0" width="32" height="32" rx="6" fill="#1e1e1e" stroke="#333" stroke-width="0.5"/>
      <polygon points="16,8 6,24 26,24" fill="#fff" opacity="0.85"/>
      <text x="16" y="38" text-anchor="middle" font-family="'Inter', sans-serif" font-size="5" fill="#6e7681">Vercel</text>
    </g>
  </g>
  <!-- Subtle status bar on screen bottom -->
  <rect x="266" y="244" width="208" height="8" fill="#161b22"/>
  <rect x="268" y="246" width="12" height="4" rx="1" fill="#39d353" opacity="0.4"/>
  <rect x="283" y="246" width="25" height="4" rx="1" fill="#58a6ff" opacity="0.3"/>
  <!-- Monitor power LED -->
  <circle cx="370" cy="258" r="1.5" fill="#39d353"><animate attributeName="opacity" values="0.8;0.35;0.8" dur="3s" repeatCount="indefinite"/></circle>

  <!-- ======== KEYBOARD ======== -->
  <rect x="295" y="296" width="130" height="34" rx="4" fill="#21262d" stroke="#30363d" stroke-width="0.8" filter="url(#lightShadow)"/>
  <g fill="#2d333b" stroke="#3d444d" stroke-width="0.3">
    <rect x="301" y="300" width="9" height="6" rx="1"/><rect x="312" y="300" width="9" height="6" rx="1"/><rect x="323" y="300" width="9" height="6" rx="1"/><rect x="334" y="300" width="9" height="6" rx="1"/><rect x="345" y="300" width="9" height="6" rx="1"/><rect x="356" y="300" width="9" height="6" rx="1"/><rect x="367" y="300" width="9" height="6" rx="1"/><rect x="378" y="300" width="9" height="6" rx="1"/><rect x="389" y="300" width="9" height="6" rx="1"/><rect x="400" y="300" width="9" height="6" rx="1"/><rect x="411" y="300" width="9" height="6" rx="1"/>
    <rect x="304" y="308" width="9" height="6" rx="1"/><rect x="315" y="308" width="9" height="6" rx="1"/><rect x="326" y="308" width="9" height="6" rx="1"/><rect x="337" y="308" width="9" height="6" rx="1"/><rect x="348" y="308" width="9" height="6" rx="1"/><rect x="359" y="308" width="9" height="6" rx="1"/><rect x="370" y="308" width="9" height="6" rx="1"/><rect x="381" y="308" width="9" height="6" rx="1"/><rect x="392" y="308" width="9" height="6" rx="1"/><rect x="403" y="308" width="9" height="6" rx="1"/>
    <rect x="330" y="316" width="60" height="7" rx="2"/><!-- spacebar -->
    <rect x="310" y="316" width="9" height="6" rx="1"/><rect x="398" y="316" width="9" height="6" rx="1"/>
  </g>

  <!-- ======== MOUSE ======== -->
  <ellipse cx="440" cy="305" rx="8" ry="12" fill="#21262d" stroke="#30363d" stroke-width="0.8"/>
  <line x1="440" y1="296" x2="440" y2="302" stroke="#3d444d" stroke-width="0.5"/>

  <!-- ======== COFFEE MUG ======== -->
  <g transform="translate(230, 268)">
    <rect x="0" y="0" width="24" height="22" rx="4" fill="#3d3d3d" stroke="#555" stroke-width="1"/>
    <path d="M 24 4 Q 34 4 34 12 Q 34 18 24 18" fill="none" stroke="#555" stroke-width="1.8"/>
    <ellipse cx="12" cy="2" rx="10" ry="2.5" fill="url(#coffeeGrad)"/>
    <!-- Heart on mug -->
    <path d="M 8 11 Q 8 8 12 10 Q 16 8 16 11 Q 16 15 12 17 Q 8 15 8 11" fill="#f78166" opacity="0.5"/>
    <!-- Steam -->
    <path d="M 7 -3 Q 4 -10 9 -16" fill="none" stroke="#8b949e" stroke-width="0.7" opacity="0.35"><animate attributeName="d" values="M 7 -3 Q 4 -10 9 -16;M 7 -3 Q 10 -10 7 -18;M 7 -3 Q 4 -10 9 -16" dur="3s" repeatCount="indefinite"/><animate attributeName="opacity" values="0.35;0.12;0.35" dur="3s" repeatCount="indefinite"/></path>
    <path d="M 14 -3 Q 17 -9 13 -15" fill="none" stroke="#8b949e" stroke-width="0.7" opacity="0.25"><animate attributeName="d" values="M 14 -3 Q 17 -9 13 -15;M 14 -3 Q 11 -9 15 -17;M 14 -3 Q 17 -9 13 -15" dur="3.8s" repeatCount="indefinite"/><animate attributeName="opacity" values="0.25;0.08;0.25" dur="3.8s" repeatCount="indefinite"/></path>
  </g>

  <!-- ======== HEADPHONES on desk ======== -->
  <g transform="translate(480, 275)">
    <path d="M 0 12 Q 0 -2 15 -2 Q 30 -2 30 12" fill="none" stroke="#484f58" stroke-width="3" stroke-linecap="round"/>
    <ellipse cx="2" cy="14" rx="5" ry="7" fill="#2d333b" stroke="#484f58" stroke-width="1"/>
    <ellipse cx="28" cy="14" rx="5" ry="7" fill="#2d333b" stroke="#484f58" stroke-width="1"/>
    <!-- Cushion accent -->
    <ellipse cx="2" cy="14" rx="3" ry="5" fill="#3d444d"/>
    <ellipse cx="28" cy="14" rx="3" ry="5" fill="#3d444d"/>
  </g>

  <!-- ======== DESK PLANT (large, left) ======== -->
  <g transform="translate(80, 170)">
    <path d="M -8 120 L -12 90 L 22 90 L 18 120 Z" fill="#8b5e3c" stroke="#6d4a30" stroke-width="1"/>
    <rect x="-15" y="85" width="40" height="7" rx="3" fill="#8b5e3c" stroke="#6d4a30" stroke-width="0.5"/>
    <ellipse cx="5" cy="88" rx="16" ry="3" fill="#3d2b1f"/>
    <!-- Leaves -->
    <path d="M 5 85 Q -15 55 -25 30" fill="none" stroke="#2ea043" stroke-width="2.2"/>
    <ellipse cx="-27" cy="27" rx="13" ry="8" fill="url(#leafGrad)" transform="rotate(-30 -27 27)"/>
    <path d="M 5 85 Q -5 60 2 30" fill="none" stroke="#238636" stroke-width="2"/>
    <ellipse cx="2" cy="26" rx="11" ry="7" fill="url(#leafGrad2)" transform="rotate(5 2 26)"/>
    <path d="M 5 85 Q 20 58 35 38" fill="none" stroke="#2ea043" stroke-width="2.2"/>
    <ellipse cx="37" cy="35" rx="12" ry="7" fill="url(#leafGrad)" transform="rotate(28 37 35)"/>
    <path d="M 5 85 Q 15 65 28 55" fill="none" stroke="#196c2e" stroke-width="1.5"/>
    <ellipse cx="30" cy="52" rx="9" ry="5.5" fill="url(#leafGrad2)" transform="rotate(35 30 52)"/>
    <path d="M 5 85 Q -10 65 -18 55" fill="none" stroke="#196c2e" stroke-width="1.5"/>
    <ellipse cx="-20" cy="52" rx="10" ry="5" fill="#2ea043" transform="rotate(-22 -20 52)"/>
    <path d="M 5 85 Q 10 72 18 68" fill="none" stroke="#39d353" stroke-width="1.2"/>
    <ellipse cx="20" cy="66" rx="7" ry="4" fill="#39d353" transform="rotate(18 20 66)"/>
    <!-- Drooping leaf -->
    <path d="M 5 85 Q -3 78 -15 80" fill="none" stroke="#39d353" stroke-width="1"/>
    <ellipse cx="-17" cy="79" rx="6" ry="3" fill="#39d353" transform="rotate(-10 -17 79)"/>
  </g>

  <!-- ======== DESK LAMP ======== -->
  <g transform="translate(172, 145)">
    <ellipse cx="0" cy="147" rx="20" ry="4" fill="#2d333b"/>
    <line x1="0" y1="143" x2="-5" y2="75" stroke="#484f58" stroke-width="3.5" stroke-linecap="round"/>
    <line x1="-5" y1="75" x2="15" y2="50" stroke="#484f58" stroke-width="3.5" stroke-linecap="round"/>
    <path d="M 5 50 L -10 22 L 40 22 L 25 50 Z" fill="#2d333b" stroke="#3d444d" stroke-width="1"/>
    <ellipse cx="15" cy="40" rx="14" ry="10" fill="#ffb347" opacity="0.25"><animate attributeName="opacity" values="0.25;0.15;0.25" dur="4s" repeatCount="indefinite"/></ellipse>
    <circle cx="15" cy="30" r="4" fill="#ffe4a8" opacity="0.7"/>
  </g>

  <!-- ======== CHARACTER ======== -->
  <g transform="translate(355, 148)">
    <!-- === BODY / SWEATER (darker, more black) === -->
    <path d="M -38 80 Q -52 86 -62 115 L -56 135 L 56 135 L 62 115 Q 52 86 38 80 Q 20 70 0 70 Q -20 70 -38 80" fill="url(#sweaterGrad)" stroke="#111318" stroke-width="0.5"/>
    <!-- Sweater fabric folds -->
    <path d="M -30 95 Q -25 100 -28 110" fill="none" stroke="#12141a" stroke-width="0.6" opacity="0.4"/>
    <path d="M 30 95 Q 25 100 28 110" fill="none" stroke="#12141a" stroke-width="0.6" opacity="0.4"/>
    <path d="M -18 98 Q -16 105 -20 118" fill="none" stroke="#12141a" stroke-width="0.3" opacity="0.25"/>
    <path d="M 18 98 Q 16 105 20 118" fill="none" stroke="#12141a" stroke-width="0.3" opacity="0.25"/>
    <!-- Ribbed collar -->
    <path d="M -16 72 Q -8 68 0 69 Q 8 68 16 72" fill="#1d1f28" stroke="#111318" stroke-width="0.5"/>
    <path d="M -14 74 L -14 70" stroke="#292b34" stroke-width="0.3" opacity="0.3"/>
    <path d="M -10 73 L -10 69" stroke="#292b34" stroke-width="0.3" opacity="0.3"/>
    <path d="M -6 72 L -6 69" stroke="#292b34" stroke-width="0.3" opacity="0.3"/>
    <path d="M 6 72 L 6 69" stroke="#292b34" stroke-width="0.3" opacity="0.3"/>
    <path d="M 10 73 L 10 69" stroke="#292b34" stroke-width="0.3" opacity="0.3"/>
    <path d="M 14 74 L 14 70" stroke="#292b34" stroke-width="0.3" opacity="0.3"/>
    <!-- White t-shirt visible under collar -->
    <path d="M -8 72 Q -4 67 0 68 Q 4 67 8 72" fill="#e8e4e0" stroke="none"/>
    <path d="M -8 72 Q 0 78 8 72" fill="#ddd8d2" stroke="none"/>
    <!-- Zipper (metallic silver look) -->
    <line x1="0" y1="72" x2="0" y2="135" stroke="#8b949e" stroke-width="1"/>
    <!-- Zipper teeth -->
    <g stroke="#a0a8b4" stroke-width="0.4" opacity="0.6">
      <line x1="-2" y1="80" x2="2" y2="80"/><line x1="-2" y1="84" x2="2" y2="84"/><line x1="-2" y1="88" x2="2" y2="88"/><line x1="-2" y1="92" x2="2" y2="92"/><line x1="-2" y1="96" x2="2" y2="96"/><line x1="-2" y1="100" x2="2" y2="100"/><line x1="-2" y1="104" x2="2" y2="104"/><line x1="-2" y1="108" x2="2" y2="108"/><line x1="-2" y1="112" x2="2" y2="112"/><line x1="-2" y1="116" x2="2" y2="116"/><line x1="-2" y1="120" x2="2" y2="120"/>
    </g>
    <!-- Zipper pull -->
    <rect x="-3" y="77" width="6" height="6" rx="1.5" fill="#9ca3af" stroke="#b0b8c4" stroke-width="0.3"/>
    <rect x="-1" y="83" width="2" height="4" rx="0.5" fill="#8b949e"/>
    <!-- Ribbed cuffs (visible at wrists) -->
    <path d="M -24 133 Q -20 131 -16 133" fill="none" stroke="#15171f" stroke-width="0.5" opacity="0.4"/>
    <path d="M 16 133 Q 20 131 24 133" fill="none" stroke="#15171f" stroke-width="0.5" opacity="0.4"/>

    <!-- === NECK === -->
    <rect x="-9" y="58" width="18" height="16" rx="4" fill="url(#skinTone)"/>

    <!-- === HEAD (narrower/oval, more like the photo) === -->
    <ellipse cx="0" cy="34" rx="24" ry="30" fill="url(#skinTone)"/>
    <!-- Jaw/chin definition (narrower, defined) -->
    <path d="M -18 48 Q -12 60 0 63 Q 12 60 18 48" fill="url(#skinTone)" stroke="none"/>
    <!-- Cheek subtle highlight -->
    <ellipse cx="-14" cy="44" rx="5" ry="3" fill="#e8c498" opacity="0.15"/>
    <ellipse cx="14" cy="44" rx="5" ry="3" fill="#e8c498" opacity="0.15"/>

    <!-- === EARS (smaller, matching narrower face) === -->
    <ellipse cx="-23" cy="38" rx="4.5" ry="7" fill="#d4a574"/>
    <ellipse cx="-23" cy="38" rx="2.5" ry="4.5" fill="#c49660" opacity="0.35"/>
    <ellipse cx="23" cy="38" rx="4.5" ry="7" fill="#d4a574"/>
    <ellipse cx="23" cy="38" rx="2.5" ry="4.5" fill="#c49660" opacity="0.35"/>

    <!-- === HAIR (medium curly, volume on top, shorter on sides) === -->
    <g fill="#1c1410">
      <!-- Main hair volume - taller on top -->
      <ellipse cx="0" cy="8" rx="25" ry="18" fill="#161010"/>
      <!-- Loose curls on top with more volume -->
      <ellipse cx="-14" cy="0" rx="8" ry="7" fill="#1a1410"/>
      <ellipse cx="-2" cy="-3" rx="9" ry="8" fill="#181210"/>
      <ellipse cx="10" cy="-1" rx="8" ry="7" fill="#1a1410"/>
      <ellipse cx="20" cy="4" rx="7" ry="6" fill="#181210"/>
      <ellipse cx="-22" cy="5" rx="6" ry="6" fill="#1a1410"/>
      <!-- Curl texture highlights -->
      <ellipse cx="-8" cy="-1" rx="5" ry="4.5" fill="#221c16" opacity="0.8"/>
      <ellipse cx="5" cy="-2" rx="5" ry="4" fill="#201a14" opacity="0.7"/>
      <ellipse cx="16" cy="1" rx="4" ry="3.5" fill="#221c16" opacity="0.7"/>
      <ellipse cx="-16" cy="3" rx="4" ry="3" fill="#201a14" opacity="0.6"/>
      <!-- Individual curl definition (looser, more organic shapes) -->
      <path d="M -18 6 Q -20 0 -15 -2 Q -10 -4 -8 0" fill="#251f18" stroke="none" opacity="0.4"/>
      <path d="M -4 3 Q -2 -3 4 -4 Q 8 -3 7 2" fill="#251f18" stroke="none" opacity="0.4"/>
      <path d="M 10 4 Q 14 -1 18 0 Q 22 2 20 6" fill="#251f18" stroke="none" opacity="0.35"/>
      <path d="M -10 8 Q -14 4 -10 0 Q -6 -2 -4 3" fill="#2a221a" stroke="none" opacity="0.3"/>
      <path d="M 2 6 Q 6 1 10 0 Q 14 2 12 7" fill="#2a221a" stroke="none" opacity="0.3"/>
      <!-- Side hair (shorter/faded) -->
      <ellipse cx="-24" cy="22" rx="3" ry="10" fill="#1a1410" opacity="0.8"/>
      <ellipse cx="24" cy="22" rx="3" ry="10" fill="#1a1410" opacity="0.8"/>
      <!-- Subtle forehead line -->
      <path d="M -20 16 Q -10 12 0 13 Q 10 12 20 16" fill="none" stroke="#201a14" stroke-width="0.5" opacity="0.3"/>
    </g>

    <!-- === EYEBROWS (defined, slightly arched) === -->
    <path d="M -17 26 Q -12 22 -6 25" fill="none" stroke="#221a12" stroke-width="2" stroke-linecap="round"/>
    <path d="M 6 25 Q 12 22 17 26" fill="none" stroke="#221a12" stroke-width="2" stroke-linecap="round"/>

    <!-- === GLASSES (rectangular with slightly rounded corners, thinner frames) === -->
    <g fill="none" stroke="#1a1410" stroke-width="2">
      <!-- Left lens - more rectangular/boxy -->
      <rect x="-20" y="29" width="17" height="13" rx="3"/>
      <!-- Right lens -->
      <rect x="3" y="29" width="17" height="13" rx="3"/>
      <!-- Bridge -->
      <path d="M -3 34 Q 0 31 3 34" stroke-width="1.5"/>
      <!-- Temple arms to ears -->
      <line x1="-20" y1="33" x2="-24" y2="32" stroke-width="1.5"/>
      <line x1="20" y1="33" x2="24" y2="32" stroke-width="1.5"/>
    </g>
    <!-- Lens reflection -->
    <rect x="-17" y="31" width="3.5" height="2" rx="0.8" fill="#fff" opacity="0.10"/>
    <rect x="6" y="31" width="3.5" height="2" rx="0.8" fill="#fff" opacity="0.10"/>

    <!-- === EYES (warm, alert, dark brown) === -->
    <ellipse cx="-11" cy="35" rx="3" ry="3.2" fill="#1e0f05"/>
    <ellipse cx="11" cy="35" rx="3" ry="3.2" fill="#1e0f05"/>
    <!-- Eye whites hint -->
    <ellipse cx="-11" cy="35" rx="4.5" ry="3.5" fill="#f5f0ea" opacity="0.15"/>
    <ellipse cx="11" cy="35" rx="4.5" ry="3.5" fill="#f5f0ea" opacity="0.15"/>
    <!-- Iris -->
    <ellipse cx="-11" cy="35" rx="3" ry="3.2" fill="#2a1505"/>
    <!-- Eye highlights -->
    <circle cx="-9.8" cy="34" r="1.2" fill="#fff" opacity="0.7"/>
    <circle cx="12.2" cy="34" r="1.2" fill="#fff" opacity="0.7"/>
    <circle cx="-12" cy="36" r="0.5" fill="#fff" opacity="0.35"/>
    <circle cx="10" cy="36" r="0.5" fill="#fff" opacity="0.35"/>

    <!-- === NOSE (more prominent, defined bridge) === -->
    <path d="M -1 30 Q 0 36 2 40" fill="none" stroke="#c49660" stroke-width="0.6" opacity="0.35"/>
    <path d="M 2 40 Q 4 45 2 47 Q 0 48.5 -2 47 Q -4 45 -3 43" fill="none" stroke="#b8875c" stroke-width="1.2" stroke-linecap="round"/>
    <!-- Nostril hints -->
    <circle cx="-2" cy="46" r="1" fill="#b8875c" opacity="0.2"/>
    <circle cx="3" cy="46" r="1" fill="#b8875c" opacity="0.2"/>

    <!-- === SMILE (warm, natural, visible teeth) === -->
    <!-- Smile shape - natural curve -->
    <path d="M -11 50 Q -6 57 0 58 Q 6 57 11 50" fill="#fff" opacity="0.92"/>
    <!-- Lip outline -->
    <path d="M -11 50 Q -6 57 0 58 Q 6 57 11 50" fill="none" stroke="#a06840" stroke-width="1.3" stroke-linecap="round"/>
    <!-- Upper lip shape -->
    <path d="M -11 50 Q -5 48 0 49.5 Q 5 48 11 50" fill="none" stroke="#a06840" stroke-width="0.8"/>
    <!-- Tooth lines (subtle) -->
    <line x1="-4" y1="51" x2="-4" y2="55" stroke="#e8e0d8" stroke-width="0.25" opacity="0.25"/>
    <line x1="0" y1="50" x2="0" y2="55.5" stroke="#e8e0d8" stroke-width="0.25" opacity="0.25"/>
    <line x1="4" y1="51" x2="4" y2="55" stroke="#e8e0d8" stroke-width="0.25" opacity="0.25"/>
    <!-- Lower lip -->
    <path d="M -7 56 Q 0 60 7 56" fill="none" stroke="#b8875c" stroke-width="0.5" opacity="0.35"/>
    <!-- Smile dimples -->
    <path d="M -13 49 Q -12 51 -12 53" fill="none" stroke="#c49660" stroke-width="0.5" opacity="0.25"/>
    <path d="M 13 49 Q 12 51 12 53" fill="none" stroke="#c49660" stroke-width="0.5" opacity="0.25"/>

    <!-- === STUBBLE (5 o'clock shadow, concentrated on chin/jaw) === -->
    <g fill="#5c4a35" opacity="0.18">
      <!-- Chin area (denser) -->
      <circle cx="-6" cy="60" r="0.5"/><circle cx="-3" cy="61" r="0.5"/><circle cx="0" cy="62" r="0.5"/><circle cx="3" cy="61" r="0.5"/><circle cx="6" cy="60" r="0.5"/>
      <circle cx="-4" cy="59" r="0.4"/><circle cx="1" cy="60" r="0.4"/><circle cx="5" cy="59" r="0.4"/>
      <circle cx="-2" cy="63" r="0.4"/><circle cx="2" cy="63" r="0.4"/>
      <circle cx="-7" cy="58" r="0.4"/><circle cx="7" cy="58" r="0.4"/>
      <!-- Jawline (lighter) -->
      <circle cx="-14" cy="53" r="0.4"/><circle cx="-12" cy="55" r="0.4"/><circle cx="-10" cy="57" r="0.4"/>
      <circle cx="14" cy="53" r="0.4"/><circle cx="12" cy="55" r="0.4"/><circle cx="10" cy="57" r="0.4"/>
      <circle cx="-16" cy="50" r="0.35"/><circle cx="16" cy="50" r="0.35"/>
      <!-- Below lower lip -->
      <circle cx="-2" cy="58" r="0.35"/><circle cx="2" cy="58" r="0.35"/>
    </g>
    <!-- Slight mustache shadow -->
    <path d="M -5 48 Q 0 49 5 48" fill="none" stroke="#5c4a35" stroke-width="0.4" opacity="0.1"/>

    <!-- === ARMS reaching to keyboard === -->
    <path d="M -48 108 Q -62 115 -56 135 Q -48 148 -15 140" fill="url(#sweaterGrad)" stroke="#111318" stroke-width="0.5"/>
    <path d="M 48 108 Q 62 115 56 135 Q 48 148 15 140" fill="url(#sweaterGrad)" stroke="#111318" stroke-width="0.5"/>

    <!-- === HANDS === -->
    <ellipse cx="-15" cy="142" rx="11" ry="5.5" fill="url(#skinTone)" transform="rotate(-3 -15 142)"/>
    <ellipse cx="15" cy="142" rx="11" ry="5.5" fill="url(#skinTone)" transform="rotate(3 15 142)"/>
    <!-- Finger lines -->
    <g stroke="#c49660" stroke-width="0.3" opacity="0.3">
      <line x1="-20" y1="140" x2="-20" y2="144"/><line x1="-15" y1="139" x2="-15" y2="143"/><line x1="-10" y1="140" x2="-10" y2="144"/>
      <line x1="20" y1="140" x2="20" y2="144"/><line x1="15" y1="139" x2="15" y2="143"/><line x1="10" y1="140" x2="10" y2="144"/>
    </g>
  </g>

  <!-- ======== SMALL ITEMS ON WINDOWSILL ======== -->
  <!-- Tiny succulent -->
  <rect x="718" y="176" width="10" height="8" rx="2" fill="#6d4a30"/>
  <ellipse cx="723" cy="174" rx="5" ry="4" fill="#39d353" opacity="0.7"/>
  <ellipse cx="720" cy="172" rx="3" ry="3" fill="#2ea043" opacity="0.6"/>
  <!-- Small candle -->
  <rect x="832" y="176" width="8" height="8" rx="1.5" fill="#d4a574" opacity="0.6"/>
  <ellipse cx="836" cy="174" rx="1" ry="2" fill="#ffb347" opacity="0.7">
    <animate attributeName="ry" values="2;2.5;2" dur="2s" repeatCount="indefinite"/>
    <animate attributeName="opacity" values="0.7;0.5;0.7" dur="2s" repeatCount="indefinite"/>
  </ellipse>

  <!-- ======== WARM AMBIENT PARTICLES ======== -->
  <g filter="url(#softGlow)">
    <circle cx="140" cy="95" r="1.5" fill="#ffb347" opacity="0.25"><animate attributeName="cy" values="95;80;95" dur="5s" repeatCount="indefinite"/><animate attributeName="opacity" values="0.25;0.45;0.25" dur="5s" repeatCount="indefinite"/></circle>
    <circle cx="520" cy="85" r="1" fill="#58a6ff" opacity="0.15"><animate attributeName="cy" values="85;70;85" dur="4s" repeatCount="indefinite"/><animate attributeName="opacity" values="0.15;0.3;0.15" dur="4s" repeatCount="indefinite"/></circle>
    <circle cx="660" cy="150" r="1.2" fill="#bc8cff" opacity="0.12"><animate attributeName="cy" values="150;135;150" dur="4.5s" repeatCount="indefinite"/><animate attributeName="opacity" values="0.12;0.25;0.12" dur="4.5s" repeatCount="indefinite"/></circle>
    <circle cx="280" cy="110" r="0.8" fill="#39d353" opacity="0.15"><animate attributeName="cy" values="110;98;110" dur="3.5s" repeatCount="indefinite"/></circle>
  </g>

  <!-- ======== NAME + TITLE (right side, overlaid) ======== -->
  <g transform="translate(730, 260)">
    <!-- Name -->
    <text x="0" y="0" text-anchor="middle" font-family="'Inter', 'Segoe UI', Arial, sans-serif" font-weight="800" font-size="32" fill="url(#nameGrad)" filter="url(#glow)">ericsocrat</text>
    <!-- Animated underline -->
    <line x1="-90" y1="10" x2="90" y2="10" stroke="url(#lineGrad)" stroke-width="1.5" stroke-linecap="round">
      <animate attributeName="x1" values="-50;-90;-50" dur="6s" repeatCount="indefinite"/>
      <animate attributeName="x2" values="50;90;50" dur="6s" repeatCount="indefinite"/>
    </line>
    <!-- Title -->
    <text x="0" y="32" text-anchor="middle" font-family="'JetBrains Mono', 'Fira Code', monospace" font-size="12" fill="#8b949e" letter-spacing="1.5">Product Builder</text>
    <text x="0" y="48" text-anchor="middle" font-family="'JetBrains Mono', 'Fira Code', monospace" font-size="12" fill="#8b949e" letter-spacing="1.5">&amp; AI Strategist</text>
    <!-- Pulsing cursor -->
    <rect x="-1" y="58" width="2" height="14" fill="#39d353" rx="0.5"><animate attributeName="opacity" values="1;0;1" dur="1.2s" repeatCount="indefinite"/></rect>
    <text x="0" y="68" text-anchor="middle" font-family="'JetBrains Mono', monospace" font-size="7" fill="#6e7681">building things that matter</text>
  </g>

  <!-- ======== CORNER ACCENTS ======== -->
  <path d="M 15 25 L 15 12 L 28 12" stroke="#58a6ff" stroke-width="1.5" fill="none" opacity="0.2"><animate attributeName="opacity" values="0.2;0.4;0.2" dur="3s" repeatCount="indefinite"/></path>
  <path d="M 885 25 L 885 12 L 872 12" stroke="#39d353" stroke-width="1.5" fill="none" opacity="0.2"><animate attributeName="opacity" values="0.2;0.4;0.2" dur="3s" repeatCount="indefinite" begin="1s"/></path>
  <path d="M 15 425 L 15 438 L 28 438" stroke="#bc8cff" stroke-width="1.5" fill="none" opacity="0.2"><animate attributeName="opacity" values="0.2;0.4;0.2" dur="3s" repeatCount="indefinite" begin="2s"/></path>
  <path d="M 885 425 L 885 438 L 872 438" stroke="#f0883e" stroke-width="1.5" fill="none" opacity="0.2"><animate attributeName="opacity" values="0.2;0.4;0.2" dur="3s" repeatCount="indefinite" begin="0.5s"/></path>
</svg>
